<svg width="1867" height="1867" viewBox="0 0 1867 1867" fill="none" xmlns="http://www.w3.org/2000/svg">
<path d="M1431.23 1129C1431.23 1129 1357.65 1183.96 1220.27 1193.8C1106.35 1201.97 975.689 1152.17 935.775 1040.38C895.869 1152.18 765.196 1201.97 651.275 1193.8C513.91 1183.91 440.332 1129 440.332 1129" stroke="black" stroke-width="29.168" stroke-linecap="round" stroke-linejoin="round"/>
<path d="M935.78 1040.32V923.563" stroke="black" stroke-width="29.168" stroke-linecap="round" stroke-linejoin="round"/>
<path d="M1020.88 876.509C1020.88 893.659 983.829 923.831 938.141 923.831C892.453 923.831 855.403 893.669 855.403 876.509C855.403 859.359 892.42 861.777 938.141 861.777C983.858 861.777 1020.88 859.38 1020.88 876.509Z" fill="black" stroke="black" stroke-width="29.168" stroke-linecap="round" stroke-linejoin="round"/>
<path d="M618.784 340.393C702.334 316.7 804.034 305.178 928.283 305.178" stroke="black" stroke-width="29.168" stroke-linecap="round" stroke-linejoin="round"/>
<path d="M928.283 1463.65C592.208 1463.65 180.865 1442.09 220.162 1039.88C250.648 727.726 302.952 521.734 466.675 409.359" stroke="black" stroke-width="29.168" stroke-linecap="round" stroke-linejoin="round"/>
<path d="M745.921 315.392C745.921 315.392 543.345 32.6185 395.843 32.6185C283.173 32.6185 247.059 489.063 340.414 546.942" stroke="black" stroke-width="29.168" stroke-linecap="round" stroke-linejoin="round"/>
<path d="M618.784 340.393C576.921 269.388 492.403 189.629 444.413 147.246C436.922 140.63 426.461 138.546 417.011 141.776C407.561 145.006 400.57 153.06 398.705 162.874C386.536 227.055 371.074 349.084 398.33 468.347" stroke="black" stroke-width="29.168" stroke-linecap="round" stroke-linejoin="round"/>
<path d="M1110.41 315.392C1110.41 315.392 1312.99 32.6185 1460.49 32.6185C1573.16 32.6185 1609.27 489.063 1515.92 546.942" stroke="black" stroke-width="29.168" stroke-linecap="round" stroke-linejoin="round"/>
<path d="M1237.58 340.393C1279.44 269.388 1363.92 189.629 1411.97 147.246C1419.46 140.63 1429.92 138.546 1439.37 141.776C1448.82 145.006 1455.82 153.06 1457.69 162.874C1469.86 227.055 1485.32 349.084 1458.07 468.347" stroke="black" stroke-width="29.168" stroke-linecap="round" stroke-linejoin="round"/>
<path d="M1237.81 340.393C1154.26 316.7 1052.53 305.178 928.283 305.178" stroke="black" stroke-width="29.168" stroke-linecap="round" stroke-linejoin="round"/>
<path d="M928.283 1463.65C1264.5 1463.65 1675.73 1442.09 1636.43 1039.88C1605.92 727.726 1553.64 521.734 1389.92 409.359" stroke="black" stroke-width="29.168" stroke-linecap="round" stroke-linejoin="round"/>
<path d="M346.945 1171.89C346.945 1171.89 292.015 1029.2 428.63 1040.32" stroke="black" stroke-width="29.168" stroke-linecap="round" stroke-linejoin="round"/>
<path d="M1524.61 1171.89C1524.61 1171.89 1579.54 1029.2 1442.93 1040.32" stroke="black" stroke-width="29.168" stroke-linecap="round" stroke-linejoin="round"/>
<path d="M456.26 579.234L899.693 654.761C899.693 654.761 888.785 906.266 630.602 880.208C425.92 859.526 456.26 579.228 456.26 579.228V579.234Z" fill="#BE1717" stroke="black" stroke-width="29.168" stroke-linecap="round" stroke-linejoin="round"/>
<path d="M1414.51 579.234L971.08 654.761C971.08 654.761 981.989 906.266 1240.14 880.208C1444.97 859.526 1414.51 579.228 1414.51 579.228V579.234Z" fill="#BE1717" stroke="black" stroke-width="29.168" stroke-linecap="round" stroke-linejoin="round"/>
<path d="M987.3 730.672H883.505L899.759 654.761H971.055L987.3 730.672Z" fill="black" stroke="black" stroke-width="29.168" stroke-linecap="round" stroke-linejoin="round"/>
</svg>
